<svg xmlns="http://www.w3.org/2000/svg" xmlns:xlink="http://www.w3.org/1999/xlink" width="0" height="0">

  <symbol id="social-gp" viewBox="0 0 24 24">
    <path d="M12.346,13.182l-0.819-0.637c-0.251-0.203-0.591-0.477-0.591-0.977s0.342-0.819,0.637-1.114   c0.954-0.75,1.91-1.546,1.91-3.229c0-1.73-1.093-2.639-1.615-3.071h1.409l1.455-0.819h-4.685c-1.227,0-2.774,0.182-4.071,1.251   c-0.978,0.84-1.455,2.001-1.455,3.047c0,1.773,1.365,3.571,3.775,3.571c0.229,0,0.477-0.023,0.729-0.045   c-0.114,0.273-0.227,0.5-0.227,0.887c0,0.704,0.363,1.137,0.682,1.546c-1.022,0.069-2.934,0.182-4.343,1.046   c-1.342,0.795-1.751,1.956-1.751,2.775c0,1.683,1.593,3.252,4.89,3.252c3.91,0,5.98-2.162,5.98-4.298   C14.255,14.798,13.346,14.024,12.346,13.182z M9.367,10.567c-1.957,0-2.844-2.525-2.844-4.048c0-0.592,0.113-1.204,0.5-1.683   c0.364-0.455,1.001-0.752,1.593-0.752c1.888,0,2.865,2.549,2.865,4.185c0,0.41-0.045,1.138-0.568,1.661   C10.55,10.294,9.936,10.566,9.367,10.567z M9.39,19.71c-2.434,0-4.003-1.159-4.003-2.774c0-1.615,1.456-2.16,1.956-2.342   c0.955-0.318,2.183-0.365,2.388-0.365c0.227,0,0.34,0,0.522,0.023c1.73,1.228,2.479,1.841,2.48,3.003   C12.732,18.664,11.573,19.71,9.39,19.71z"/>
	<polygon points="18.154,10.718 18.154,8.257 16.923,8.257 16.923,10.718 14.46,10.718 14.46,11.949 16.923,11.949    16.923,14.41 18.154,14.41 18.154,11.949 20.615,11.949 20.615,10.718  "/>
  </symbol>

  <symbol id="social-vk" viewBox="0 0 24 24">
    <path d="M14.099,11.401v-0.035c0.958-0.287,1.709-1.208,1.709-2.553c0-1.742-1.432-2.73-2.984-2.73H7.466v11.834  h4.903c2.99,0,4.163-1.868,4.164-3.59C16.534,12.466,15.519,11.694,14.099,11.401z M10.229,8.188h0.622  c0.451,0,1.154-0.052,1.538,0.172c0.368,0.224,0.568,0.638,0.568,1.069c0,0.397-0.166,0.828-0.484,1.07  c-0.401,0.311-0.953,0.276-1.422,0.276h-0.822V8.188z M13.06,15.467c-0.418,0.294-1.036,0.259-1.521,0.259H10.23v-2.94h1.427  c0.434,0,0.969,0,1.354,0.224c0.384,0.224,0.651,0.761,0.65,1.209C13.661,14.702,13.445,15.209,13.06,15.467z"/>
  </symbol>

  <symbol id="social-fb" viewBox="0 0 24 24">
    <path d="M15.102,11.998L13.135,12l-0.001,7.2h-2.699V12h-1.8V9.519l1.8-0.001l-0.003-1.461  c0-2.025,0.549-3.256,2.932-3.256h1.986v2.482h-1.242c-0.928,0-0.973,0.346-0.973,0.993l-0.003,1.242h2.232L15.102,11.998z"/>
  </symbol>

  <symbol id="social-insta" viewBox="0 0 31.059 31.059">
    <g>
  		<path style="fill:#010002;" d="M23.128,31.059H7.931C3.558,31.059,0,27.5,0,23.127V7.93C0,3.557,3.558,0,7.931,0h15.197
  			c4.373,0,7.931,3.557,7.931,7.93v15.197C31.059,27.5,27.501,31.059,23.128,31.059z M7.931,1.774c-3.395,0-6.156,2.761-6.156,6.155
  			v15.197c0,3.395,2.762,6.156,6.156,6.156h15.197c3.395,0,6.155-2.762,6.155-6.156V7.93c0-3.395-2.761-6.155-6.155-6.155H7.931z"/>
  	</g>
  	<g>
  		<path style="fill:#010002;" d="M30.171,11.654H19.232c-0.49,0-0.888-0.398-0.888-0.888c0-0.49,0.397-0.888,0.888-0.888h10.938
  			c0.49,0,0.888,0.397,0.888,0.888C31.059,11.256,30.661,11.654,30.171,11.654z"/>
  	</g>
  	<g>
  		<path style="fill:#010002;" d="M11.597,11.654H0.887C0.397,11.654,0,11.256,0,10.767c0-0.49,0.397-0.888,0.887-0.888h10.71
  			c0.49,0,0.888,0.397,0.888,0.888C12.484,11.256,12.087,11.654,11.597,11.654z"/>
  	</g>
  	<g>
  		<path style="fill:#010002;" d="M15.529,22.45c-3.816,0-6.922-3.104-6.922-6.921c0-3.817,3.105-6.922,6.922-6.922
  			c3.816,0,6.921,3.104,6.921,6.922C22.45,19.346,19.346,22.45,15.529,22.45z M15.529,10.382c-2.838,0-5.148,2.31-5.148,5.148
  			s2.31,5.146,5.148,5.146c2.838,0,5.146-2.308,5.146-5.146S18.367,10.382,15.529,10.382z"/>
  	</g>
  	<g>
  		<path style="fill:#010002;" d="M25.557,9.361h-3.993c-0.49,0-0.888-0.397-0.888-0.887V4.48c0-0.49,0.398-0.887,0.888-0.887h3.993
  			c0.49,0,0.887,0.397,0.887,0.887v3.994C26.443,8.965,26.047,9.361,25.557,9.361z M22.45,7.586h2.219V5.368H22.45V7.586z"/>
  	</g>
  	<g>

  			<path style="fill:#010002;stroke:#FFFFFF;stroke-width:1.7748;stroke-linecap:round;stroke-linejoin:round;stroke-miterlimit:10;" d="
  			M19.232,10.767"/>
  	</g>  </symbol>

  <symbol id="social-youtube" viewBox="0 0 90 90">
  <path d="M70.939,65.832H66l0.023-2.869c0-1.275,1.047-2.318,2.326-2.318h0.315c1.282,0,2.332,1.043,2.332,2.318
    L70.939,65.832z M52.413,59.684c-1.253,0-2.278,0.842-2.278,1.873V75.51c0,1.029,1.025,1.869,2.278,1.869
    c1.258,0,2.284-0.84,2.284-1.869V61.557C54.697,60.525,53.671,59.684,52.413,59.684z M82.5,51.879v26.544
    C82.5,84.79,76.979,90,70.23,90H19.771C13.02,90,7.5,84.79,7.5,78.423V51.879c0-6.367,5.52-11.578,12.271-11.578H70.23
    C76.979,40.301,82.5,45.512,82.5,51.879z M23.137,81.305l-0.004-27.961l6.255,0.002v-4.143l-16.674-0.025v4.073l5.205,0.015v28.039
    H23.137z M41.887,57.509h-5.215v14.931c0,2.16,0.131,3.24-0.008,3.621c-0.424,1.158-2.33,2.388-3.073,0.125
    c-0.126-0.396-0.015-1.591-0.017-3.643l-0.021-15.034h-5.186l0.016,14.798c0.004,2.268-0.051,3.959,0.018,4.729
    c0.127,1.357,0.082,2.939,1.341,3.843c2.346,1.69,6.843-0.252,7.968-2.668l-0.01,3.083l4.188,0.005L41.887,57.509L41.887,57.509z
     M58.57,74.607L58.559,62.18c-0.004-4.736-3.547-7.572-8.356-3.74l0.021-9.239l-5.209,0.008l-0.025,31.89l4.284-0.062l0.39-1.986
    C55.137,84.072,58.578,80.631,58.57,74.607z M74.891,72.96l-3.91,0.021c-0.002,0.155-0.008,0.334-0.01,0.529v2.182
    c0,1.168-0.965,2.119-2.137,2.119h-0.766c-1.174,0-2.139-0.951-2.139-2.119V75.45v-2.4v-3.097h8.954v-3.37
    c0-2.463-0.063-4.925-0.267-6.333c-0.641-4.454-6.893-5.161-10.051-2.881c-0.991,0.712-1.748,1.665-2.188,2.945
    c-0.444,1.281-0.665,3.031-0.665,5.254v7.41C61.714,85.296,76.676,83.555,74.891,72.96z M54.833,32.732
    c0.269,0.654,0.687,1.184,1.254,1.584c0.56,0.394,1.276,0.592,2.134,0.592c0.752,0,1.418-0.203,1.998-0.622
    c0.578-0.417,1.065-1.04,1.463-1.871l-0.099,2.046h5.813V9.74H62.82v19.24c0,1.042-0.858,1.895-1.907,1.895
    c-1.043,0-1.904-0.853-1.904-1.895V9.74h-4.776v16.674c0,2.124,0.039,3.54,0.102,4.258C54.4,31.385,54.564,32.069,54.833,32.732z
     M37.217,18.77c0-2.373,0.198-4.226,0.591-5.562c0.396-1.331,1.107-2.401,2.137-3.208c1.027-0.811,2.342-1.217,3.941-1.217
    c1.345,0,2.497,0.264,3.459,0.781c0.967,0.52,1.713,1.195,2.23,2.028c0.527,0.836,0.885,1.695,1.076,2.574
    c0.195,0.891,0.291,2.235,0.291,4.048v6.252c0,2.293-0.092,3.98-0.271,5.051c-0.177,1.074-0.557,2.07-1.146,3.004
    c-0.58,0.924-1.329,1.615-2.237,2.056c-0.918,0.445-1.968,0.663-3.154,0.663c-1.325,0-2.441-0.183-3.361-0.565
    c-0.923-0.38-1.636-0.953-2.144-1.714c-0.513-0.762-0.874-1.69-1.092-2.772c-0.219-1.081-0.323-2.707-0.323-4.874L37.217,18.77
    L37.217,18.77z M41.77,28.59c0,1.4,1.042,2.543,2.311,2.543c1.27,0,2.308-1.143,2.308-2.543V15.43c0-1.398-1.038-2.541-2.308-2.541
    c-1.269,0-2.311,1.143-2.311,2.541V28.59z M25.682,35.235h5.484l0.006-18.96l6.48-16.242h-5.998l-3.445,12.064L24.715,0h-5.936
    l6.894,16.284L25.682,35.235z"/>
    </symbol>
</svg>
